<svg width="400" height="323" viewBox="0 0 400 323" fill="none" xmlns="http://www.w3.org/2000/svg">
<path d="M211.081 2.19801L51.9394 84.3368C42.2729 89.3257 38.4812 101.207 43.4704 110.873L119.262 257.717C124.252 267.384 136.132 271.176 145.799 266.187L304.941 184.048C314.607 179.059 318.399 167.177 313.409 157.511L237.618 10.667C232.629 1.00031 220.747 -2.79128 211.081 2.19801Z" fill="#050038"/>
<path d="M172.12 32.6241L24.7053 134.319C15.751 140.496 13.4997 152.762 19.677 161.716L113.513 297.739C119.69 306.693 131.957 308.945 140.91 302.768L288.324 201.074C297.28 194.896 299.531 182.631 293.353 173.675L199.518 37.6525C193.34 28.6983 181.073 26.447 172.12 32.6241Z" fill="#504D74"/>
<path d="M43.0585 169.009C57.2316 157.96 71.768 147.348 86.5951 137.319C87.7579 136.52 86.6678 134.63 85.5049 135.429C70.4839 145.605 55.8263 156.289 41.5323 167.481C40.442 168.354 41.9684 169.881 43.0585 169.009ZM62.3192 189.941C70.8926 183.995 79.1191 177.564 86.9584 170.68C88.0487 169.736 86.4496 168.208 85.4321 169.154C77.738 175.917 69.6566 182.227 61.229 188.052C60.066 188.851 61.1563 190.74 62.3192 189.941ZM78.382 217.851C88.9656 211.596 99.0283 204.498 108.472 196.627C109.563 195.682 107.964 194.156 106.873 195.029C97.6133 202.817 87.7183 209.819 77.2919 215.961C76.1289 216.688 77.2192 218.577 78.382 217.851ZM92.4823 242.126C104.145 235.896 114.863 228.039 124.317 218.795C124.529 218.593 124.652 218.314 124.659 218.021C124.666 217.729 124.556 217.445 124.353 217.232C124.151 217.021 123.873 216.898 123.579 216.891C123.286 216.883 123.003 216.993 122.791 217.196C113.456 226.311 102.886 234.065 91.392 240.236C90.1565 240.891 91.2466 242.78 92.4823 242.126ZM108.908 265.53C120.6 259.081 131.097 250.673 139.944 240.672C140.888 239.654 139.362 238.056 138.418 239.146C129.681 248.989 119.334 257.271 107.818 263.64C106.583 264.295 107.673 266.184 108.908 265.53ZM121.119 288.134C131.572 281.636 140.839 273.402 148.52 263.785C149.393 262.696 147.865 261.169 146.994 262.259C139.45 271.771 130.299 279.888 119.956 286.245C119.706 286.398 119.526 286.646 119.458 286.932C119.39 287.219 119.438 287.52 119.593 287.771C119.747 288.021 119.994 288.201 120.28 288.269C120.567 288.337 120.868 288.289 121.119 288.134Z" fill="white"/>
<path d="M217.671 29.6168L62.5754 119.161C53.1546 124.601 49.9266 136.647 55.3658 146.067L137.991 289.178C143.431 298.598 155.476 301.827 164.897 296.387L319.992 206.844C329.414 201.404 332.641 189.358 327.201 179.936L244.577 36.8264C239.138 27.4055 227.091 24.1776 217.671 29.6168Z" fill="#ECF3FE"/>
<path d="M80.7085 152.8C93.4278 143.714 109.854 140.59 121.265 129.396C122.283 128.452 120.756 126.852 119.739 127.87C108.473 138.917 92.1922 141.897 79.6183 150.91C78.4553 151.71 79.5456 153.599 80.7085 152.8ZM92.919 178.239C101.99 174.84 110.456 170.005 117.994 163.921C119.085 163.048 117.486 161.522 116.468 162.394C109.218 168.244 101.069 172.882 92.3376 176.131C91.0294 176.639 91.6107 178.747 92.919 178.239ZM107.237 201.571C106.583 200.117 125.117 190.74 127.007 189.65C128.897 188.56 127.152 187.106 125.917 187.761L109.781 196.772C107.601 197.936 103.894 199.535 105.348 202.661C106.002 203.896 107.892 202.806 107.237 201.571ZM125.844 227.009L148.667 213.998C148.917 213.844 149.095 213.597 149.163 213.31C149.233 213.025 149.183 212.722 149.03 212.472C148.875 212.221 148.628 212.043 148.342 211.974C148.056 211.906 147.754 211.955 147.502 212.108L124.754 225.119C123.518 225.774 124.608 227.663 125.844 227.009ZM142.416 254.41C153.172 249.613 164.292 245.252 174.323 238.929C175.486 238.202 174.396 236.311 173.233 237.038C163.202 243.362 152.082 247.796 141.326 252.52C140.017 253.101 141.107 254.991 142.416 254.41ZM180.792 235.512L181.445 234.931C181.616 234.713 181.71 234.445 181.71 234.167C181.71 233.89 181.616 233.623 181.445 233.404C181.23 233.2 180.944 233.085 180.646 233.085C180.349 233.085 180.063 233.2 179.847 233.404L179.265 233.986C179.108 234.196 179.032 234.455 179.051 234.717C179.068 234.979 179.181 235.225 179.366 235.411C179.552 235.596 179.799 235.709 180.06 235.728C180.322 235.747 180.582 235.67 180.792 235.512ZM198.962 86.0781C208.089 81.1247 216.541 75.0178 224.11 67.9077C225.128 66.9628 223.601 65.4364 222.584 66.3813C215.128 73.3318 206.824 79.3146 197.872 84.1885C197.621 84.333 197.439 84.5712 197.363 84.8506C197.288 85.13 197.327 85.4277 197.472 85.6784C197.617 85.929 197.854 86.1114 198.134 86.1867C198.413 86.262 198.711 86.2229 198.962 86.0781ZM218.587 95.3808C228.325 93.0555 238.356 90.2944 245.625 83.0255C246.641 82.0806 245.115 80.4816 244.097 81.4992C237.047 88.4773 227.381 91.0198 218.005 93.3465C216.623 93.6376 217.205 95.7442 218.587 95.3808ZM241.553 120.965C251.158 117.067 260.241 111.99 268.591 105.848C269.681 104.976 268.663 103.085 267.501 103.958C259.323 110.025 250.408 115.032 240.973 118.858C239.664 119.367 240.246 121.475 241.553 120.965ZM254.636 172.352C264.23 162.03 278.548 157.96 287.852 147.349C288.724 146.258 287.198 144.732 286.252 145.822C277.022 156.434 262.704 160.504 253.11 170.825C252.165 171.842 253.692 173.369 254.636 172.352ZM196.055 234.277C230.724 219.232 257.253 190.813 291.051 174.242C292.358 173.66 291.268 171.77 289.96 172.352C256.162 188.923 229.634 217.342 194.964 232.387C193.729 232.968 194.82 234.858 196.055 234.277ZM127.733 160.359C159.471 140.538 192.196 122.343 225.781 105.848C227.09 105.193 226 103.376 224.691 103.958C191.104 120.479 158.379 138.697 126.643 158.542C126.486 158.591 126.342 158.675 126.221 158.788C126.101 158.901 126.008 159.04 125.949 159.195C125.891 159.349 125.868 159.515 125.882 159.679C125.897 159.844 125.948 160.002 126.033 160.144C126.118 160.285 126.234 160.406 126.372 160.495C126.511 160.587 126.667 160.643 126.831 160.665C126.995 160.685 127.161 160.669 127.318 160.616C127.474 160.562 127.616 160.475 127.733 160.359ZM147.358 201.715C164.22 196.336 178.466 185.725 192.856 175.84C208.919 164.865 225.927 155.853 244.388 149.529C245.697 149.093 245.115 146.985 243.807 147.422C226.095 153.545 209.278 162.003 193.802 172.569C178.829 182.745 164.22 194.011 146.777 199.607C145.468 200.043 145.976 202.151 147.358 201.715Z" fill="#504D74"/>
<path d="M185.079 230.643C164.634 230.624 145.029 222.493 130.572 208.034C116.114 193.577 107.983 173.974 107.964 153.527C107.964 111.08 142.56 76.484 185.079 76.484C205.5 76.5224 225.074 84.6518 239.514 99.0918C253.955 113.532 262.084 133.106 262.123 153.527C262.123 196.045 227.526 230.643 185.079 230.643ZM185.079 99.0151C174.278 99.0006 163.714 102.192 154.727 108.185C145.74 114.176 138.732 122.701 134.591 132.677C130.452 142.655 129.364 153.635 131.468 164.231C133.572 174.825 138.771 184.558 146.41 192.197C154.048 199.835 163.781 205.034 174.376 207.139C184.971 209.243 195.951 208.156 205.929 204.015C215.906 199.875 224.43 192.867 230.423 183.88C236.414 174.892 239.605 164.329 239.591 153.527C239.572 139.075 233.822 125.222 223.603 115.003C213.386 104.783 199.531 99.0353 185.079 99.0151Z" fill="white"/>
<path d="M178.102 223.882C178.392 223.882 178.668 223.768 178.874 223.564C179.078 223.36 179.192 223.082 179.192 222.792C179.192 222.504 179.078 222.226 178.874 222.022C178.668 221.818 178.392 221.702 178.102 221.702C177.812 221.702 177.536 221.818 177.332 222.022C177.128 222.226 177.012 222.504 177.012 222.792C177.012 223.082 177.128 223.36 177.332 223.564C177.536 223.768 177.812 223.882 178.102 223.882Z" fill="#050038"/>
<path d="M166.473 227.444C166.691 228.317 166.836 229.117 167.055 229.988C166.982 229.697 166.982 228.099 167.055 229.625C167.127 231.151 167.127 232.605 167.127 234.131C166.982 237.112 166.619 240.164 166.183 243.144C165.382 249.685 164.655 256.155 164.075 262.695C163.057 276.36 161.967 290.606 164.002 304.125C165.456 313.136 170.107 322.658 180.501 322.949C188.569 323.093 195.837 315.68 199.544 309.139C206.449 296.929 205.431 282.101 204.921 268.583C204.161 252.968 202.487 237.412 199.907 221.993C198.745 215.234 190.023 210.801 183.772 212.835C177.521 214.871 173.45 221.702 174.686 228.97L175.558 234.494L175.994 237.257C176.213 238.855 176.213 239.074 176.068 237.911C176.551 241.593 176.987 245.3 177.375 249.031C178.03 256.008 178.538 262.986 178.756 269.963C178.975 276.94 179.411 283.628 178.684 290.387C178.975 287.989 178.174 292.786 178.03 293.294C177.885 293.803 177.594 294.748 177.303 295.475C177.885 294.094 177.885 294.094 177.23 295.475C176.886 296.131 176.496 296.762 176.068 297.364C177.012 296.274 177.012 296.202 175.994 297.364C174.978 298.527 174.978 298.382 176.14 297.511C175.593 297.945 174.979 298.288 174.323 298.527L180.937 296.784H179.992L186.606 298.527L185.953 298.019L190.677 302.743C190.095 301.725 190.095 301.725 190.603 302.743C190.285 301.944 190.041 301.116 189.876 300.272C189.665 299.458 189.496 298.633 189.368 297.8C189.513 299.182 189.587 299.037 189.368 297.437C189.296 293.876 189.149 290.315 189.223 286.753C189.296 279.412 189.587 272.144 190.095 264.803C190.603 257.462 191.402 250.34 192.348 243.144C193.293 235.948 193.802 228.026 191.693 220.539C189.587 213.054 182.318 209.201 175.631 211.381C168.944 213.562 164.511 220.395 166.473 227.444Z" fill="white"/>
<path d="M192.203 303.398C195.255 286.536 196.636 269.527 195.4 252.447C195.183 249.613 190.822 249.613 191.039 252.447C192.094 269.105 191.069 285.831 187.987 302.234C187.478 304.924 191.693 306.159 192.203 303.398ZM199.325 90.293C207.393 90.9474 213.643 94.5092 219.966 99.3061C226.291 104.103 231.378 108.247 234.649 114.787C235.957 117.259 239.736 115.078 238.428 112.534C234.794 105.339 228.397 100.396 222.147 95.5995C215.896 90.8026 208.264 86.6602 199.325 85.9334C196.563 85.7148 196.563 90.0758 199.325 90.293ZM181.664 89.2027H186.316C189.149 89.2027 189.149 84.8424 186.316 84.8424H181.664C178.901 84.8424 178.901 89.2027 181.664 89.2027Z" fill="#050038"/>
<path d="M163.057 295.983C163.856 303.107 166.327 310.375 172.142 314.881C174.866 316.946 178.077 318.27 181.465 318.729C184.852 319.188 188.301 318.764 191.476 317.497C208.774 310.592 205.503 288.062 205.866 273.38C205.866 273.09 205.752 272.812 205.546 272.608C205.342 272.404 205.066 272.29 204.776 272.29C204.487 272.29 204.21 272.404 204.004 272.608C203.8 272.812 203.686 273.09 203.686 273.38C203.323 286.536 206.666 305.141 193.801 313.863C190.971 315.69 187.681 316.681 184.312 316.718C180.942 316.757 177.631 315.842 174.759 314.082C168.653 310.156 165.964 302.96 165.237 295.983C165.092 294.603 162.912 294.603 163.057 295.983ZM170.47 207.893C189.149 213.925 210.3 208.111 224.327 194.592C238.356 181.073 245.042 160.504 241.189 141.608C240.9 140.226 238.792 140.807 239.083 142.188C242.789 160.287 236.029 180.273 222.801 193.066C209.573 205.858 189.004 211.6 171.052 205.858C170.909 205.775 170.748 205.727 170.583 205.716C170.418 205.704 170.253 205.732 170.099 205.794C169.946 205.856 169.808 205.952 169.698 206.075C169.587 206.198 169.506 206.344 169.461 206.503C169.416 206.663 169.407 206.831 169.436 206.993C169.464 207.156 169.53 207.31 169.627 207.445C169.724 207.578 169.85 207.688 169.996 207.766C170.143 207.844 170.305 207.888 170.47 207.893Z" fill="#050038"/>
<path d="M190.095 235.731V239.801C190.095 242.636 194.456 242.636 194.456 239.801V235.731C194.456 232.896 190.095 232.896 190.095 235.731Z" fill="#050038"/>
<path d="M312.491 141.608C309.584 151.565 303.843 160.214 298.464 168.935C293.085 177.657 287.634 187.178 282.546 196.483C272.337 215.424 263.165 234.907 255.072 254.846C253.692 258.116 256.526 262.042 259.652 262.841C262.777 263.64 266.338 261.604 267.647 258.335C275.741 238.634 284.913 219.391 295.121 200.697C300.209 191.395 305.586 182.309 311.11 173.296C316.635 164.284 322.159 155.271 325.066 145.095C327.392 136.955 314.744 133.466 312.491 141.608Z" fill="#504D74"/>
<path d="M258.706 253.247C261.238 253.482 263.743 253.945 266.193 254.627C267.573 255.064 268.155 252.956 266.774 252.52C264.13 251.812 261.431 251.326 258.706 251.067C257.325 250.92 257.325 253.101 258.706 253.247ZM263.286 245.033L263.43 250.557C263.438 250.794 263.523 251.023 263.672 251.207C263.82 251.392 264.025 251.523 264.256 251.581C264.486 251.638 264.729 251.62 264.948 251.527C265.165 251.433 265.347 251.272 265.466 251.067C270.554 242.053 275.931 233.114 279.493 223.302C279.929 221.993 277.821 221.412 277.385 222.72C273.897 232.313 268.591 241.108 263.577 249.976L265.611 250.557L265.466 245.033C265.394 243.652 263.213 243.652 263.286 245.033ZM313.145 144.587C315.47 145.242 319.396 145.677 320.994 147.786C322.594 149.892 323.684 147.786 322.885 146.695C320.777 143.933 316.924 143.425 313.727 142.479C312.418 142.116 311.836 144.224 313.145 144.587Z" fill="#050038"/>
<path d="M295.484 193.502C296.866 190.885 298.392 188.341 299.99 185.797C300.789 184.635 298.9 183.544 298.101 184.707C296.502 187.251 294.975 189.795 293.595 192.411C292.94 193.648 294.83 194.738 295.484 193.502ZM304.132 178.166C305.78 174.822 307.306 171.407 308.712 167.917C309.22 166.61 307.112 166.028 306.604 167.337C305.297 170.68 303.843 173.878 302.243 177.077C301.589 178.312 303.479 179.474 304.132 178.166Z" fill="white"/>
<path d="M105.202 115.805C100.592 112.275 95.2938 109.75 89.6483 108.391C88.2673 108.1 87.6858 110.209 89.0668 110.5C94.5199 111.848 99.6397 114.296 104.112 117.694C105.275 118.493 106.365 116.604 105.202 115.805ZM115.232 104.685C113.21 98.8831 110.501 93.345 107.165 88.1861C106.438 87.0235 104.548 88.1123 105.275 89.2764C108.532 94.2774 111.191 99.6447 113.197 105.265C113.633 106.574 115.741 105.992 115.232 104.685ZM270.263 259.279C271.937 262.075 273.938 264.661 276.223 266.983C276.425 267.196 276.703 267.319 276.997 267.325C277.29 267.332 277.574 267.222 277.785 267.019C277.998 266.817 278.121 266.539 278.127 266.246C278.134 265.952 278.024 265.669 277.821 265.457C275.635 263.281 273.731 260.84 272.153 258.189C271.426 257.026 269.536 258.116 270.263 259.279ZM263.286 267.493V271.926C263.286 272.214 263.4 272.492 263.604 272.697C263.81 272.901 264.087 273.017 264.376 273.017C264.666 273.017 264.942 272.901 265.146 272.697C265.351 272.492 265.466 272.214 265.466 271.926V267.493C265.466 267.203 265.351 266.925 265.146 266.721C264.942 266.517 264.666 266.403 264.376 266.403C264.087 266.403 263.81 266.517 263.604 266.721C263.4 266.925 263.286 267.203 263.286 267.493ZM28.9588 118.931C23.0715 123.655 17.1116 128.306 11.297 133.176C6.71804 136.955 2.21177 141.316 0.685546 147.204C-2.58524 159.849 6.4273 170.824 15.44 178.384C16.4574 179.256 18.0565 177.729 16.9662 176.858C8.02635 169.298 -2.07645 157.161 3.8835 144.804C6.4273 139.572 11.297 135.938 15.658 132.376L30.4852 120.457C31.5753 119.584 30.0491 118.058 28.9588 118.931ZM23.0715 186.743L33.1743 201.86C33.901 203.023 35.7908 201.932 35.064 200.77L24.9612 185.652C24.1616 184.49 22.272 185.58 23.0715 186.743ZM329.136 165.011C329.572 164.793 341.565 184.707 342.727 186.67C344.835 190.449 348.179 197.136 344.253 200.842C340.328 204.55 336.913 206.221 333.423 208.765C332.26 209.637 333.351 211.528 334.513 210.655L342.944 204.55C344.835 203.241 347.014 202.006 347.888 199.607C349.269 195.609 347.233 190.74 345.416 187.106C342.655 181.655 339.093 176.494 335.822 171.262C334.369 168.935 333.06 165.955 331.243 163.993C329.425 162.03 329.353 162.393 328.046 163.12C327.795 163.265 327.611 163.504 327.537 163.783C327.462 164.063 327.501 164.36 327.646 164.61C327.789 164.862 328.028 165.045 328.308 165.12C328.587 165.194 328.885 165.155 329.136 165.011ZM317.651 222.139C320.951 220.807 323.89 218.715 326.229 216.033C327.1 214.943 325.574 213.417 324.702 214.435C322.641 216.882 320.024 218.8 317.071 220.031C315.762 220.612 316.344 222.72 317.651 222.139Z" fill="#050038"/>
<path d="M360.316 142.988C358.136 142.988 357.19 140.08 356.827 137.247C353.993 136.883 350.504 136.01 350.504 133.612C350.504 131.213 353.919 130.414 356.682 130.051C356.973 127.143 357.845 123.364 360.316 123.364C362.788 123.364 363.659 127.143 363.95 130.051C366.639 130.414 370.129 131.286 370.129 133.612C370.129 135.938 366.567 136.883 363.804 137.247C363.441 140.08 362.497 142.988 360.316 142.988ZM353.993 133.612C355.346 134.105 356.769 134.375 358.208 134.412L359.443 134.556V135.721C359.558 137.008 359.827 138.276 360.244 139.5C360.662 138.28 360.907 137.008 360.971 135.721L361.116 134.556L362.351 134.412C363.768 134.386 365.17 134.115 366.494 133.612C365.177 133.184 363.807 132.941 362.424 132.886L361.116 132.739V131.504C361.055 129.949 360.785 128.409 360.316 126.925C359.773 128.39 359.503 129.942 359.517 131.504L359.371 132.739L358.136 132.886C356.73 132.949 355.337 133.194 353.993 133.612Z" fill="#050038"/>
<path d="M380.958 113.696C376.96 113.696 375.507 105.992 374.998 101.633C370.782 101.195 361.843 99.8156 361.843 95.5993C361.843 91.383 370.637 90.0032 374.78 89.5674C375.143 85.0604 376.452 75.5391 380.958 75.5391C385.465 75.5391 386.7 85.0604 387.064 89.5674C391.278 90.0032 400 91.383 400 95.5993C400 99.8156 391.134 101.195 386.919 101.633C386.337 105.992 384.883 113.696 380.958 113.696ZM380.958 78.4464C380.159 78.5918 378.124 82.4439 377.615 90.9472V92.2561H376.38C368.093 92.9106 364.969 94.8725 364.823 95.5269C364.678 96.1813 368.093 98.1432 376.524 98.7977H377.687L377.833 100.033C378.56 107.665 380.45 110.5 381.03 110.644C381.612 110.791 383.429 107.665 384.156 100.033L384.301 98.7977H385.538C393.896 98.1432 397.021 96.1075 397.167 95.5269C397.312 94.9448 393.896 92.9106 385.682 92.2561H384.447V90.9472C383.793 82.4439 381.685 78.5918 380.958 78.4464ZM33.5383 296.129C29.5407 296.129 28.0872 288.425 27.5784 284.064C23.3629 283.628 14.4229 282.247 14.4229 278.031C14.4229 273.816 23.2175 272.435 27.3603 271.999C27.7238 267.493 29.0319 257.972 33.5383 257.972C38.0446 257.972 39.2801 267.493 39.6435 271.999C43.8591 272.435 52.581 273.816 52.581 278.031C52.581 282.247 43.7137 283.628 39.4981 284.064C38.9167 288.425 37.4631 296.129 33.5383 296.129ZM33.5383 260.877C32.7388 261.024 30.7037 264.875 30.1949 273.38V274.687H28.9592C20.6735 275.342 17.5483 277.304 17.4029 277.958C17.2575 278.613 20.6735 280.575 29.1046 281.229H30.2676L30.4129 282.464C31.1398 290.096 33.0296 292.931 33.611 293.076C34.1924 293.222 36.0821 290.096 36.7363 282.464L36.8817 281.229H38.1173C46.4757 280.575 49.601 278.54 49.7463 277.958C49.8917 277.378 46.4757 275.342 38.2627 274.687H37.027V273.38C36.3729 264.875 34.265 261.024 33.5383 260.877Z" fill="#504D74"/>
<path d="M44.8755 89.2027C42.695 89.2027 41.7501 86.2967 41.3867 83.4615C38.5522 83.0981 35.0635 82.2258 35.0635 79.8273C35.0635 77.4288 38.4795 76.6293 41.2413 76.2659C41.5321 73.3587 42.4043 69.5791 44.8755 69.5791C47.3467 69.5791 48.2189 73.3587 48.5096 76.2659C51.1988 76.6293 54.6876 77.5015 54.6876 79.8273C54.6876 82.1532 51.1261 83.0981 48.3642 83.4615C48.0008 86.2967 47.0559 89.2027 44.8755 89.2027ZM38.5522 79.8273C39.9048 80.3203 41.3285 80.5902 42.7677 80.6268L44.0033 80.7722V81.9351C44.1174 83.2224 44.3859 84.4914 44.8029 85.7147C45.2222 84.4953 45.4669 83.2229 45.5296 81.9351L45.6749 80.7722L46.9106 80.6268C48.3273 80.6013 49.729 80.3308 51.0534 79.8273C49.7364 79.3998 48.3668 79.1553 46.9832 79.1006L45.6749 78.9552V77.7196C45.614 76.1644 45.3451 74.6244 44.8755 73.1406C44.3332 74.6057 44.0623 76.1573 44.076 77.7196L43.9306 78.9552L42.695 79.1006C41.2887 79.165 39.8964 79.4093 38.5522 79.8273Z" fill="#050038"/>
</svg>
